<svg width="76" height="75" viewBox="0 0 76 75" fill="none" xmlns="http://www.w3.org/2000/svg">
<circle cx="3.60176" cy="3.60176" r="3.60176" fill="#FF784B"/>
<circle cx="3.60176" cy="20.8009" r="3.60176" fill="#FF784B"/>
<circle cx="3.60176" cy="38" r="3.60176" fill="#FF784B"/>
<circle cx="3.60176" cy="55.1991" r="3.60176" fill="#FF784B"/>
<circle cx="3.60176" cy="70.5554" r="3.60176" fill="#FF784B"/>
<circle cx="20.8009" cy="3.60176" r="3.60176" fill="#FF784B"/>
<circle cx="20.8009" cy="20.8009" r="3.60176" fill="#FF784B"/>
<circle cx="20.8009" cy="38" r="3.60176" fill="#FF784B"/>
<circle cx="20.8009" cy="55.1991" r="3.60176" fill="#FF784B"/>
<circle cx="20.8009" cy="70.5554" r="3.60176" fill="#FF784B"/>
<circle cx="38" cy="3.60176" r="3.60176" fill="#FF784B"/>
<circle cx="38" cy="20.8009" r="3.60176" fill="#FF784B"/>
<circle cx="38" cy="38" r="3.60176" fill="#FF784B"/>
<circle cx="38" cy="55.1991" r="3.60176" fill="#FF784B"/>
<circle cx="38" cy="70.5554" r="3.60176" fill="#FF784B"/>
<circle cx="55.1992" cy="3.60176" r="3.60176" fill="#FF784B"/>
<circle cx="55.1992" cy="20.8009" r="3.60176" fill="#FF784B"/>
<circle cx="55.1992" cy="38" r="3.60176" fill="#FF784B"/>
<circle cx="55.1992" cy="55.1991" r="3.60176" fill="#FF784B"/>
<circle cx="55.1992" cy="70.5554" r="3.60176" fill="#FF784B"/>
<circle cx="72.3983" cy="3.60176" r="3.60176" fill="#FF784B"/>
<circle cx="72.3983" cy="20.8009" r="3.60176" fill="#FF784B"/>
<circle cx="72.3983" cy="38" r="3.60176" fill="#FF784B"/>
<circle cx="72.3983" cy="55.1991" r="3.60176" fill="#FF784B"/>
<circle cx="72.3983" cy="70.5554" r="3.60176" fill="#FF784B"/>
</svg>
