<svg xmlns="http://www.w3.org/2000/svg" width="76" height="75" fill="none" viewBox="0 0 76 75"><circle cx="3.602" cy="3.602" r="3.602" fill="#FF784B"/><circle cx="3.602" cy="20.801" r="3.602" fill="#FF784B"/><circle cx="3.602" cy="38" r="3.602" fill="#FF784B"/><circle cx="3.602" cy="55.199" r="3.602" fill="#FF784B"/><circle cx="3.602" cy="70.555" r="3.602" fill="#FF784B"/><circle cx="20.801" cy="3.602" r="3.602" fill="#FF784B"/><circle cx="20.801" cy="20.801" r="3.602" fill="#FF784B"/><circle cx="20.801" cy="38" r="3.602" fill="#FF784B"/><circle cx="20.801" cy="55.199" r="3.602" fill="#FF784B"/><circle cx="20.801" cy="70.555" r="3.602" fill="#FF784B"/><circle cx="38" cy="3.602" r="3.602" fill="#FF784B"/><circle cx="38" cy="20.801" r="3.602" fill="#FF784B"/><circle cx="38" cy="38" r="3.602" fill="#FF784B"/><circle cx="38" cy="55.199" r="3.602" fill="#FF784B"/><circle cx="38" cy="70.555" r="3.602" fill="#FF784B"/><circle cx="55.199" cy="3.602" r="3.602" fill="#FF784B"/><circle cx="55.199" cy="20.801" r="3.602" fill="#FF784B"/><circle cx="55.199" cy="38" r="3.602" fill="#FF784B"/><circle cx="55.199" cy="55.199" r="3.602" fill="#FF784B"/><circle cx="55.199" cy="70.555" r="3.602" fill="#FF784B"/><circle cx="72.398" cy="3.602" r="3.602" fill="#FF784B"/><circle cx="72.398" cy="20.801" r="3.602" fill="#FF784B"/><circle cx="72.398" cy="38" r="3.602" fill="#FF784B"/><circle cx="72.398" cy="55.199" r="3.602" fill="#FF784B"/><circle cx="72.398" cy="70.555" r="3.602" fill="#FF784B"/></svg>