<svg xmlns="http://www.w3.org/2000/svg" width="83" height="83" fill="none" viewBox="0 0 83 83"><circle cx="3.962" cy="41.801" r="2.802" fill="#FF784B" transform="rotate(-45 3.96206 41.8013)"/><circle cx="13.422" cy="51.261" r="2.802" fill="#FF784B" transform="rotate(-45 13.4218 51.2611)"/><circle cx="22.882" cy="60.721" r="2.802" fill="#FF784B" transform="rotate(-45 22.8817 60.7209)"/><circle cx="32.342" cy="70.181" r="2.802" fill="#FF784B" transform="rotate(-45 32.3415 70.1807)"/><circle cx="40.788" cy="78.627" r="2.802" fill="#FF784B" transform="rotate(-45 40.7877 78.6269)"/><circle cx="13.422" cy="32.341" r="2.802" fill="#FF784B" transform="rotate(-45 13.4218 32.3414)"/><circle cx="22.882" cy="41.801" r="2.802" fill="#FF784B" transform="rotate(-45 22.8817 41.8013)"/><circle cx="32.342" cy="51.261" r="2.802" fill="#FF784B" transform="rotate(-45 32.3415 51.261)"/><circle cx="41.801" cy="60.721" r="2.802" fill="#FF784B" transform="rotate(-45 41.8012 60.7208)"/><circle cx="50.248" cy="69.167" r="2.802" fill="#FF784B" transform="rotate(-45 50.2475 69.1671)"/><circle cx="22.882" cy="22.882" r="2.802" fill="#FF784B" transform="rotate(-45 22.8817 22.8817)"/><circle cx="32.342" cy="32.342" r="2.802" fill="#FF784B" transform="rotate(-45 32.3415 32.3415)"/><circle cx="41.801" cy="41.801" r="2.802" fill="#FF784B" transform="rotate(-45 41.8012 41.8013)"/><circle cx="51.261" cy="51.261" r="2.802" fill="#FF784B" transform="rotate(-45 51.2611 51.261)"/><circle cx="59.707" cy="59.707" r="2.802" fill="#FF784B" transform="rotate(-45 59.7073 59.7073)"/><circle cx="32.342" cy="13.422" r="2.802" fill="#FF784B" transform="rotate(-45 32.3415 13.4219)"/><circle cx="41.801" cy="22.882" r="2.802" fill="#FF784B" transform="rotate(-45 41.8012 22.8817)"/><circle cx="51.261" cy="32.342" r="2.802" fill="#FF784B" transform="rotate(-45 51.2611 32.3415)"/><circle cx="60.721" cy="41.801" r="2.802" fill="#FF784B" transform="rotate(-45 60.7208 41.8013)"/><circle cx="69.167" cy="50.248" r="2.802" fill="#FF784B" transform="rotate(-45 69.1671 50.2475)"/><circle cx="41.801" cy="3.962" r="2.802" fill="#FF784B" transform="rotate(-45 41.8012 3.9621)"/><circle cx="51.261" cy="13.422" r="2.802" fill="#FF784B" transform="rotate(-45 51.2611 13.4219)"/><circle cx="60.721" cy="22.882" r="2.802" fill="#FF784B" transform="rotate(-45 60.7208 22.8817)"/><circle cx="70.181" cy="32.342" r="2.802" fill="#FF784B" transform="rotate(-45 70.1806 32.3415)"/><circle cx="78.627" cy="40.788" r="2.802" fill="#FF784B" transform="rotate(-45 78.6269 40.7877)"/></svg>