<svg width="83" height="83" viewBox="0 0 83 83" fill="none" xmlns="http://www.w3.org/2000/svg">
<circle cx="3.96206" cy="41.8013" r="2.8016" transform="rotate(-45 3.96206 41.8013)" fill="#FF784B"/>
<circle cx="13.4218" cy="51.2611" r="2.8016" transform="rotate(-45 13.4218 51.2611)" fill="#FF784B"/>
<circle cx="22.8817" cy="60.7209" r="2.8016" transform="rotate(-45 22.8817 60.7209)" fill="#FF784B"/>
<circle cx="32.3415" cy="70.1807" r="2.8016" transform="rotate(-45 32.3415 70.1807)" fill="#FF784B"/>
<circle cx="40.7877" cy="78.6269" r="2.8016" transform="rotate(-45 40.7877 78.6269)" fill="#FF784B"/>
<circle cx="13.4218" cy="32.3414" r="2.8016" transform="rotate(-45 13.4218 32.3414)" fill="#FF784B"/>
<circle cx="22.8817" cy="41.8013" r="2.8016" transform="rotate(-45 22.8817 41.8013)" fill="#FF784B"/>
<circle cx="32.3415" cy="51.261" r="2.8016" transform="rotate(-45 32.3415 51.261)" fill="#FF784B"/>
<circle cx="41.8012" cy="60.7208" r="2.8016" transform="rotate(-45 41.8012 60.7208)" fill="#FF784B"/>
<circle cx="50.2475" cy="69.1671" r="2.8016" transform="rotate(-45 50.2475 69.1671)" fill="#FF784B"/>
<circle cx="22.8817" cy="22.8817" r="2.8016" transform="rotate(-45 22.8817 22.8817)" fill="#FF784B"/>
<circle cx="32.3415" cy="32.3415" r="2.8016" transform="rotate(-45 32.3415 32.3415)" fill="#FF784B"/>
<circle cx="41.8012" cy="41.8013" r="2.8016" transform="rotate(-45 41.8012 41.8013)" fill="#FF784B"/>
<circle cx="51.2611" cy="51.261" r="2.8016" transform="rotate(-45 51.2611 51.261)" fill="#FF784B"/>
<circle cx="59.7073" cy="59.7073" r="2.8016" transform="rotate(-45 59.7073 59.7073)" fill="#FF784B"/>
<circle cx="32.3415" cy="13.4219" r="2.8016" transform="rotate(-45 32.3415 13.4219)" fill="#FF784B"/>
<circle cx="41.8012" cy="22.8817" r="2.8016" transform="rotate(-45 41.8012 22.8817)" fill="#FF784B"/>
<circle cx="51.2611" cy="32.3415" r="2.8016" transform="rotate(-45 51.2611 32.3415)" fill="#FF784B"/>
<circle cx="60.7208" cy="41.8013" r="2.8016" transform="rotate(-45 60.7208 41.8013)" fill="#FF784B"/>
<circle cx="69.1671" cy="50.2475" r="2.8016" transform="rotate(-45 69.1671 50.2475)" fill="#FF784B"/>
<circle cx="41.8012" cy="3.9621" r="2.8016" transform="rotate(-45 41.8012 3.9621)" fill="#FF784B"/>
<circle cx="51.2611" cy="13.4219" r="2.8016" transform="rotate(-45 51.2611 13.4219)" fill="#FF784B"/>
<circle cx="60.7208" cy="22.8817" r="2.8016" transform="rotate(-45 60.7208 22.8817)" fill="#FF784B"/>
<circle cx="70.1806" cy="32.3415" r="2.8016" transform="rotate(-45 70.1806 32.3415)" fill="#FF784B"/>
<circle cx="78.6269" cy="40.7877" r="2.8016" transform="rotate(-45 78.6269 40.7877)" fill="#FF784B"/>
</svg>
